<?xml version="1.0" encoding="UTF-8" standalone="no"?>
<!-- Created with Inkscape (http://www.inkscape.org/) -->
<svg xmlns:dc="http://purl.org/dc/elements/1.1/" xmlns:cc="http://creativecommons.org/ns#" xmlns:rdf="http://www.w3.org/1999/02/22-rdf-syntax-ns#" xmlns:svg="http://www.w3.org/2000/svg" xmlns="http://www.w3.org/2000/svg" xmlns:sodipodi="http://sodipodi.sourceforge.net/DTD/sodipodi-0.dtd" xmlns:inkscape="http://www.inkscape.org/namespaces/inkscape" width="512" height="512" viewBox="0 0 135.46666 135.46667" version="1.1" id="svg935" inkscape:version="0.92.2 2405546, 2018-03-11" sodipodi:docname="logo.svg" inkscape:export-filename="/home/lwr/lug/logo-collect/decided/logo-origin.png" inkscape:export-xdpi="600" inkscape:export-ydpi="600">
  <defs id="defs929"/>
  <sodipodi:namedview id="base" pagecolor="#ffffff" bordercolor="#666666" borderopacity="1.0" inkscape:pageopacity="0.0" inkscape:pageshadow="2" inkscape:zoom="0.98994949" inkscape:cx="180.46091" inkscape:cy="260.99485" inkscape:document-units="mm" inkscape:current-layer="layer1" showgrid="true" inkscape:window-width="2560" inkscape:window-height="1385" inkscape:window-x="0" inkscape:window-y="27" inkscape:window-maximized="1" units="px">
    <inkscape:grid type="xygrid" id="grid1480"/>
  </sodipodi:namedview>
  <metadata id="metadata932">
    <rdf:RDF>
      <cc:Work rdf:about="">
        <dc:format>image/svg+xml</dc:format>
        <dc:type rdf:resource="http://purl.org/dc/dcmitype/StillImage"/>
        <dc:title/>
      </cc:Work>
    </rdf:RDF>
  </metadata>
  <g inkscape:label="Layer 1" inkscape:groupmode="layer" id="layer1" transform="translate(0,-161.53332)">    <path style="opacity:0.15;fill:#e0ebf4;fill-opacity:1;fill-rule:evenodd;stroke:none;stroke-width:0.26458332px;stroke-linecap:butt;stroke-linejoin:miter;stroke-opacity:1" d="m 15.848133,222.51576 -2.645833,5.29167 v 10.58333 l 7.937499,52.91667 7.9375,-2.64583 7.9375,-1.32292 h 6.614584 l -18.520834,-62.17709 -3.96875,-2.64583 h -5.291666" id="path1615" inkscape:connector-curvature="0"/>
    <path style="fill:#e0ebf4;stroke-width:0.21976617;fill-opacity:1" d="m 20.319397,293.25407 c 0,-0.0934 -1.928028,-15.00189 -4.284504,-33.12975 -2.356476,-18.12788 -4.284923,-33.23568 -4.285441,-33.57288 -0.0015,-0.98246 0.778234,-2.24187 2.093834,-3.3819 0.929759,-0.80566 1.891873,-1.32879 4.014297,-2.18274 3.418271,-1.37533 37.875925,-13.7105 38.305398,-13.7126 0.428669,-0.002 1.068419,-1.01555 2.496133,-3.95429 1.4007,-2.8831 1.692586,-4.49057 1.236429,-6.80918 -0.893477,-4.54144 -3.895035,-7.55413 -10.676896,-10.71652 -3.238848,-1.51029 -5.744443,-2.34031 -9.230179,-3.05763 -1.994898,-0.41052 -8.553088,-0.59611 -9.183539,-0.25987 -0.495753,0.26439 -1.255353,0.0358 -1.255353,-0.37767 0,-0.80827 4.903258,-3.52722 8.021464,-4.44804 4.318546,-1.27527 5.430781,-1.33317 10.768542,-0.56063 3.697496,0.53515 7.733696,0.0927 8.965642,-0.98308 0.217128,-0.18949 1.071562,-1.29264 1.898767,-2.45124 1.724236,-2.41503 3.691939,-4.34193 6.078324,-5.95225 2.089962,-1.4103 2.781072,-1.69684 5.329838,-2.20979 2.750486,-0.55356 4.455893,-0.5211 7.727988,0.14692 6.669862,1.36193 11.55782,5.22483 14.724579,11.63658 1.433107,2.90165 2.094776,5.12514 2.419719,8.13136 0.468177,4.33131 1.34458,6.45186 3.729512,9.02403 1.862879,2.0091 2.859579,3.48681 3.700859,5.48687 1.45367,3.45595 6.49336,16.71961 6.47011,17.02826 -0.0512,0.67983 -15.284022,49.56476 -15.524915,49.82233 -0.137726,0.14718 -11.311239,5.16926 -24.83,11.15995 l -24.579566,10.89216 -1.316334,-0.25904 c -2.982739,-0.58683 -10.173249,0.12355 -14.807721,1.46285 -2.477697,0.71605 -6.552076,2.44317 -7.042847,2.98547 -0.373718,0.41293 -0.96414,0.56123 -0.96414,0.24217 z m 2.885741,-2.75869 1.433361,-0.62115 -0.284509,-1.90617 c -0.156493,-1.0484 -1.184856,-7.83987 -2.285277,-15.09215 -3.097493,-20.41394 -3.791179,-25.28006 -4.707106,-33.01988 -0.06079,-0.51368 -0.03177,-0.93399 0.06448,-0.93399 0.332371,0 1.971826,9.94904 5.540775,33.62421 1.102366,7.31272 2.124021,14.08701 2.270344,15.054 0.146318,0.96696 0.360587,1.75792 0.476141,1.75765 0.654107,-10e-4 4.715306,-1.32441 4.715306,-1.53601 0,-0.13887 -1.139161,-5.73431 -2.53147,-12.43416 -5.608666,-26.98914 -8.611511,-42.31795 -8.342575,-42.58689 0.05233,-0.0524 0.143307,0.0426 0.202177,0.21103 0.516612,1.47802 4.101779,17.97951 6.798857,31.29318 1.593844,7.86775 4.806237,23.49697 4.840048,23.5482 0.01194,0.0182 0.763629,-0.10015 1.670165,-0.26312 0.906535,-0.16301 2.068549,-0.3016 2.582252,-0.30796 0.513705,-0.006 0.934007,-0.1051 0.934007,-0.21959 0,-0.20609 -7.280195,-27.93053 -9.553885,-36.38313 -1.13982,-4.23736 -2.340149,-9.18532 -2.660028,-10.96514 -0.109119,-0.60707 -0.08244,-0.81178 0.09175,-0.7041 0.279555,0.17287 1.392269,3.60288 2.430922,7.49368 1.21681,4.55819 5.12257,19.36533 7.955646,30.16067 l 2.724525,10.38172 2.362485,0.002 c 1.867865,0.002 2.362487,-0.0615 2.362487,-0.30226 0,-0.73281 -18.316156,-59.67209 -18.800959,-60.49936 -0.693639,-1.1836 -1.431319,-1.7513 -2.806237,-2.15959 -1.604849,-0.47659 -2.507279,-0.40913 -4.005012,0.29943 -1.520792,0.71946 -2.404997,1.65232 -2.737878,2.88856 -0.223538,0.83016 -0.22333,5.48466 2.2e-4,5.49279 0.06043,0.002 0.12493,0.57184 0.143333,1.26587 0.02736,1.03269 6.814162,54.06737 7.229258,56.49223 0.06858,0.40059 0.198568,0.69727 0.288853,0.65931 0.0903,-0.0379 0.80918,-0.34858 1.59753,-0.6902 z m 44.550969,-13.41491 c 9.953862,-4.41186 18.134736,-8.05835 18.179722,-8.10333 0.283137,-0.28314 1.641349,-8.15515 2.303864,-13.35287 0.594676,-4.6655 0.829027,-14.82913 0.441208,-19.13481 -1.149334,-12.76016 -4.817331,-22.69542 -11.556208,-31.30153 -1.743719,-2.22687 -2.421547,-2.8462 -3.488688,-3.18758 -1.419683,-0.45416 -2.809441,-0.12614 -9.143609,2.15762 -6.560649,2.36548 -7.677072,2.83566 -7.92461,3.33751 -0.08944,0.18143 -0.77157,1.74169 -1.515855,3.46754 -8.366446,19.4001 -12.787015,34.84928 -14.084563,49.22328 -0.355282,3.93578 -0.169133,12.9931 0.333083,16.20588 0.312691,2.00037 1.538691,6.49258 2.792853,10.2333 l 0.262645,0.78337 2.651115,-1.15344 c 1.458111,-0.63438 10.795183,-4.76312 20.749043,-9.17494 z m 6.193426,-94.53217 c 0.694494,-0.35914 1.311404,-1.33952 1.311404,-2.08406 0,-1.16481 -1.252636,-2.41742 -2.417427,-2.41742 -1.164791,0 -2.417428,1.25261 -2.417428,2.41742 0,0.72237 0.606484,1.71531 1.266417,2.07342 0.777783,0.422 1.455349,0.42519 2.257034,0.01 z m 24.169853,104.23989 c -0.992453,-1.36642 -1.875487,-2.46575 -1.962299,-2.44288 -0.08682,0.0233 -1.668672,1.04323 -3.515245,2.26747 -3.618586,2.39907 -4.121106,2.67746 -3.93386,2.1794 0.06468,-0.1721 4.544542,-14.65262 9.955231,-32.17896 5.410687,-17.52637 10.232577,-33.1431 10.715307,-34.70384 0.5626,-1.81902 0.93894,-2.72628 1.04832,-2.5273 0.0939,0.1708 1.27259,3.16723 2.61943,6.65892 1.34683,3.49169 2.54262,6.52383 2.65729,6.73813 0.14038,0.26233 0.10709,0.67704 -0.10191,1.26926 -0.17069,0.4838 -1.81075,6.30274 -3.64459,12.93095 -7.72655,27.92689 -11.68028,41.94033 -11.893,42.15305 -0.07715,0.0772 -0.952288,-0.97774 -1.944741,-2.3442 z M 113.20384,247.6785 c 1.85254,-6.66673 3.40554,-12.1586 3.45111,-12.20419 0.0456,-0.0457 0.31008,0.53848 0.58781,1.29784 1.41732,3.87535 5.7673,15.03118 6.16528,15.81128 0.25126,0.4925 0.37465,0.96877 0.2742,1.05835 -0.17131,0.15289 -13.59762,6.15803 -13.76788,6.15803 -0.0434,0 1.43693,-5.45457 3.28948,-12.12131 z" id="path2188" inkscape:connector-curvature="0"/>
    <flowRoot xml:space="preserve" id="flowRoot2172" style="fill:black;stroke:none;stroke-opacity:1;stroke-width:1px;stroke-linejoin:miter;stroke-linecap:butt;fill-opacity:1;font-family:sans-serif;font-style:normal;font-weight:normal;font-size:40px;line-height:25px;letter-spacing:0px;word-spacing:0px"><flowRegion id="flowRegion2174"><rect id="rect2176" width="40" height="60" x="320" y="292"/></flowRegion><flowPara id="flowPara2178"/></flowRoot>    <flowRoot xml:space="preserve" id="flowRoot2180" style="fill:black;stroke:none;stroke-opacity:1;stroke-width:1px;stroke-linejoin:miter;stroke-linecap:butt;fill-opacity:1;font-family:sans-serif;font-style:normal;font-weight:normal;font-size:40px;line-height:25px;letter-spacing:0px;word-spacing:0px;z-index:-1"><flowRegion id="flowRegion2182"><rect id="rect2184" width="360" height="360" x="100" y="192"/></flowRegion><flowPara id="flowPara2186"/></flowRoot>
  </g>
</svg>