<?xml version="1.0" encoding="utf-8"?>
<!-- Generator: Adobe Illustrator 25.3.1, SVG Export Plug-In . SVG Version: 6.00 Build 0)  -->
<svg version="1.1"
	 id="svg2" inkscape:export-filename="/home/fred/SFI/SFD&apos;11/logo/SFDLogo.png" inkscape:export-xdpi="36.220001" inkscape:export-ydpi="36.220001" inkscape:version="0.48.2 r9819" sodipodi:docname="SFDLogo.svg" xmlns:cc="http://creativecommons.org/ns#" xmlns:dc="http://purl.org/dc/elements/1.1/" xmlns:inkscape="http://www.inkscape.org/namespaces/inkscape" xmlns:rdf="http://www.w3.org/1999/02/22-rdf-syntax-ns#" xmlns:sodipodi="http://sodipodi.sourceforge.net/DTD/sodipodi-0.dtd" xmlns:svg="http://www.w3.org/2000/svg"
	 xmlns="http://www.w3.org/2000/svg" xmlns:xlink="http://www.w3.org/1999/xlink" x="0px" y="0px" viewBox="0 0 217.1 163.6"
	 style="enable-background:new 0 0 217.1 163.6;" xml:space="preserve">
<style type="text/css">
	.st0{fill:none;}
	.st1{fill:url(#path4499_1_);}
	.st2{fill:url(#path4507_1_);}
	.st3{fill:url(#path4515_1_);}
	.st4{fill:url(#path4523_1_);}
	.st5{fill:url(#path4531_1_);}
	.st6{fill:url(#path4539_1_);}
	.st7{fill:url(#path4547_1_);}
	.st8{fill:url(#path4565_1_);}
	.st9{fill:url(#path4573_1_);}
	.st10{fill:url(#path4581_1_);}
	.st11{fill:url(#path4591_1_);}
</style>
<defs>
	
		<inkscape:perspective  id="perspective475" inkscape:persp3d-origin="1080.108 : 571.05733 : 1" inkscape:vp_x="0 : 856.586 : 1" inkscape:vp_y="0 : 1000 : 0" inkscape:vp_z="2160.2161 : 856.586 : 1" sodipodi:type="inkscape:persp3d">
		</inkscape:perspective>
</defs>
<sodipodi:namedview  bordercolor="#666666" borderopacity="1" fit-margin-bottom="0" fit-margin-left="0" fit-margin-right="0" fit-margin-top="0" gridtolerance="10" guidetolerance="10" id="namedview469" inkscape:current-layer="svg2" inkscape:cx="37.090382" inkscape:cy="428.60745" inkscape:pageopacity="0" inkscape:pageshadow="2" inkscape:window-height="968" inkscape:window-maximized="1" inkscape:window-width="1280" inkscape:window-x="-4" inkscape:window-y="-4" inkscape:zoom="0.55102464" objecttolerance="10" pagecolor="#ffffff" showgrid="false">
	</sodipodi:namedview>
<g id="Layer_1" transform="translate(-997.033,-1405.1715)">
</g>
<path id="path4409" inkscape:connector-curvature="0" class="st0" d="M67.4,97.4c7.6-18.1,28.5-26.5,46.8-18.9
	c4.3,1.8,8,4.3,11.1,7.3c-3.7-4.1-8.4-7.5-13.8-9.8c-19.5-8.2-41.9,0.8-50,20.2c-5.7,13.7-2.7,29,6.5,39.5c0.9-1.6,1.9-3.2,2.8-4.8
	C64.3,121.4,62.6,108.9,67.4,97.4z"/>
<g id="g4489" transform="translate(-21.997783,935.41)">
	<g id="g4491">
		
			<linearGradient id="path4499_1_" gradientUnits="userSpaceOnUse" x1="-7756.6826" y1="-6357.0698" x2="-7737.1763" y2="-6360.0742" gradientTransform="matrix(0.2376 -0.9714 -0.9714 -0.2376 -4268.7144 -9936.0947)">
			<stop  offset="0" style="stop-color:#F7EC30"/>
			<stop  offset="1" style="stop-color:#FAAE40"/>
		</linearGradient>
		<path id="path4499" inkscape:connector-curvature="0" class="st1" d="M74-888.7c0,0,7.5,9.4,5.7-0.2c-1.8-9.7-16.1-28.6-23.3-24
			s-3.6,8.3,1,10.8C61.9-899.7,70.8-893.5,74-888.7L74-888.7z"/>
		
			<linearGradient id="path4507_1_" gradientUnits="userSpaceOnUse" x1="-3684.3176" y1="-13332.4492" x2="-3663.499" y2="-13335.6553" gradientTransform="matrix(0.8559 -0.5171 -0.5171 -0.8559 -3634.9021 -14229.2031)">
			<stop  offset="0" style="stop-color:#F7EC30"/>
			<stop  offset="1" style="stop-color:#FAAE40"/>
		</linearGradient>
		<path id="path4507" inkscape:connector-curvature="0" class="st2" d="M112.2-903.3c0,0-1.5,12.8,4.5,4.1c6-8.6,9.4-33.7,0.5-35.7
			s-9,3.6-7.4,8.8C111.3-920.8,113.4-909.4,112.2-903.3z"/>
		
			<linearGradient id="path4515_1_" gradientUnits="userSpaceOnUse" x1="85.906" y1="-15150.3398" x2="110.3385" y2="-15154.1025" gradientTransform="matrix(0.9997 2.440000e-02 2.440000e-02 -0.9997 437.8431 -16060.1484)">
			<stop  offset="0" style="stop-color:#F7EC30"/>
			<stop  offset="1" style="stop-color:#FAAE40"/>
		</linearGradient>
		<path id="path4515" inkscape:connector-curvature="0" class="st3" d="M154.3-898.9c0,0-9.5,11.7,1.8,6.9s30.6-27.4,23.1-35
			s-11.2-2.1-12.9,4.1C164.5-916.7,159.3-904.1,154.3-898.9z"/>
		
			<linearGradient id="path4523_1_" gradientUnits="userSpaceOnUse" x1="3919.6104" y1="-13329.0586" x2="3944.6511" y2="-13332.9141" gradientTransform="matrix(0.802 0.5973 0.5973 -0.802 5010.3418 -13910.8857)">
			<stop  offset="0" style="stop-color:#F7EC30"/>
			<stop  offset="1" style="stop-color:#FAAE40"/>
		</linearGradient>
		<path id="path4523" inkscape:connector-curvature="0" class="st4" d="M184.7-868.6c0,0-14.9,4.1-2.6,6.9
			c12.3,2.7,41.8-4.8,40-15.6s-8.1-8.4-13.2-4.2C203.8-877.4,192.1-869.9,184.7-868.6L184.7-868.6z"/>
		
			<linearGradient id="path4531_1_" gradientUnits="userSpaceOnUse" x1="-8571.4004" y1="203.7287" x2="-8554.4893" y2="201.1245" gradientTransform="matrix(-0.3327 -0.943 -0.943 0.3327 -2618.2202 -9007.1104)">
			<stop  offset="0" style="stop-color:#F7EC30"/>
			<stop  offset="1" style="stop-color:#FAAE40"/>
		</linearGradient>
		<path id="path4531" inkscape:connector-curvature="0" class="st5" d="M50-859.9c0,0,9.9,3.3,4-2.9s-25.2-13.1-28.3-6.3
			c-3.1,6.7,1.4,7.7,5.8,7.3C36-862.1,45.4-861.9,50-859.9L50-859.9z"/>
		
			<linearGradient id="path4539_1_" gradientUnits="userSpaceOnUse" x1="-8489.7705" y1="4136.6191" x2="-8476.2051" y2="4134.5303" gradientTransform="matrix(-0.6493 -0.7605 -0.7605 0.6493 -2328.9624 -9965.46)">
			<stop  offset="0" style="stop-color:#F7EC30"/>
			<stop  offset="1" style="stop-color:#FAAE40"/>
		</linearGradient>
		<path id="path4539" inkscape:connector-curvature="0" class="st6" d="M43-828.1c0,0,8.4-0.4,2.2-3.3c-6.2-2.9-22.7-2.5-23,3.4
			c-0.4,5.9,3.3,5.4,6.5,3.8C31.8-825.7,38.9-828.2,43-828.1L43-828.1z"/>
		
			<linearGradient id="path4547_1_" gradientUnits="userSpaceOnUse" x1="-5261.1733" y1="7746.2246" x2="-5250.5688" y2="7744.5918" gradientTransform="matrix(-0.9803 -0.1975 -0.1975 0.9803 -3578.2825 -9426.9795)">
			<stop  offset="0" style="stop-color:#F7EC30"/>
			<stop  offset="1" style="stop-color:#FAAE40"/>
		</linearGradient>
		<path id="path4547" inkscape:connector-curvature="0" class="st7" d="M50.3-800c0,0,5-4.3-0.3-3.1c-5.2,1.2-15.2,9.4-12.5,13.2
			c2.6,3.8,4.6,1.8,5.8-0.8C44.6-793.1,47.7-798.1,50.3-800z"/>
	</g>
</g>
<path id="path4549" inkscape:connector-curvature="0" class="st0" d="M65.2,94.6c7.6-18.1,28.5-26.5,46.8-18.9
	c4.3,1.8,8,4.3,11.1,7.3c-3.7-4.1-8.4-7.5-13.8-9.8C89.8,65,67.4,74,59.3,93.4c-5.7,13.7-2.7,28.9,6.5,39.5c0.9-1.6,1.9-3.2,2.8-4.8
	C62.1,118.5,60.4,106,65.2,94.6z"/>
<g id="g4551" transform="translate(-21.997783,935.41)">
	<path id="path4553" inkscape:connector-curvature="0" class="st0" d="M87.2-840.9c7.6-18.1,28.5-26.5,46.8-18.9
		c4.3,1.8,8,4.3,11.1,7.3c-3.7-4.1-8.4-7.5-13.8-9.8c-19.5-8.2-41.9,0.8-50,20.2c-4.3,10.3-4.6,23.1-0.5,33.4
		c2.1-1.6,4.3-3.1,6.5-4.7C83.7-821.9,83.3-831.7,87.2-840.9L87.2-840.9z"/>
	<path id="path4555" inkscape:connector-curvature="0" class="st0" d="M120.4-855.3c-16.4,0-29.8,13.4-29.8,29.8
		c0,3.1,0.5,6.1,1.4,9c15.1-9.9,33.3-19,54-24.3l0,0C140.8-849.5,131.3-855.3,120.4-855.3L120.4-855.3z"/>
	<path id="path4557" inkscape:connector-curvature="0" class="st0" d="M179.6-835.7c0.4,2.3,0.7,4.6,0.8,7c-6.4,0.5-9.9-0.6-9.9-0.6
		c-2.8-3.2-6-5.5-9.3-7.2c-2.1,0.2-4.3,0.6-6.5,1c-28.6,5.7-52.7,19.6-70.7,33.2c0.7,1,1.4,1.9,2.1,2.8c-3.6,6.4-5.2,10.3-7.9,16.9
		c-2.8-2.7-5.2-5.7-7.4-8.9c-7.5,6.6-13.2,12.6-16.9,16.7h183C231.3-790.4,214.2-828.5,179.6-835.7L179.6-835.7z"/>
	
		<linearGradient id="path4565_1_" gradientUnits="userSpaceOnUse" x1="1184.3302" y1="5525.1382" x2="1304.3615" y2="5525.1382" gradientTransform="matrix(1 0 0 1 -1123.9812 -6317.6821)">
		<stop  offset="0" style="stop-color:#F7EC30"/>
		<stop  offset="1" style="stop-color:#FAAE40"/>
	</linearGradient>
	<path id="path4565" inkscape:connector-curvature="0" class="st8" d="M86.2-799.6c-0.8-0.9-1.5-1.8-2.1-2.8
		c-4.9,3.7-9.3,7.3-13.2,10.8c2.2,3.2,4.7,6.2,7.4,8.9C81-789.3,82.6-793.2,86.2-799.6L86.2-799.6z"/>
	
		<linearGradient id="path4573_1_" gradientUnits="userSpaceOnUse" x1="1184.3296" y1="5476.0381" x2="1304.3604" y2="5476.0381" gradientTransform="matrix(1 0 0 1 -1123.9812 -6317.6821)">
		<stop  offset="0" style="stop-color:#F7EC30"/>
		<stop  offset="1" style="stop-color:#FAAE40"/>
	</linearGradient>
	<path id="path4573" inkscape:connector-curvature="0" class="st9" d="M81.3-842c8.1-19.3,30.5-28.3,50-20.2
		c5.5,2.3,10.1,5.7,13.8,9.8c-3.1-3-6.9-5.5-11.1-7.3c-18.3-7.7-39.2,0.8-46.8,18.9c-3.8,9.1-3.5,19,0.2,27.5
		c1.5-1.1,3.1-2.1,4.7-3.2c-0.9-2.8-1.4-5.8-1.4-9c0-16.4,13.4-29.8,29.8-29.8c10.8,0,20.3,5.8,25.6,14.5l0,0
		c2.4-0.6,4.9-1.2,7.4-1.7c4.9-1,9.8-1.5,14.5-1.5c3.5,0,6.8,0.3,10,0.8c-7.5-24.5-30.4-42.4-57.4-42.4c-33.2,0-60.1,26.9-60.1,60.1
		c0,10,2.5,19.5,6.8,27.8c4.1-3.5,8.6-7.3,13.6-11C76.7-818.9,76.9-831.7,81.3-842L81.3-842z"/>
	
		<linearGradient id="path4581_1_" gradientUnits="userSpaceOnUse" x1="1184.3302" y1="5484.8535" x2="1304.3615" y2="5484.8535" gradientTransform="matrix(1 0 0 1 -1123.9812 -6317.6821)">
		<stop  offset="0" style="stop-color:#F7EC30"/>
		<stop  offset="1" style="stop-color:#FAAE40"/>
	</linearGradient>
	<path id="path4581" inkscape:connector-curvature="0" class="st10" d="M170.5-829.4c0,0,3.5,1.1,9.9,0.6c-0.1-2.4-0.4-4.7-0.8-7
		c-3.7-0.8-7.6-1.2-11.8-1.2c-2.2,0-4.4,0.1-6.6,0.4C164.5-834.9,167.7-832.6,170.5-829.4z"/>
	<g id="g4583">
		
			<linearGradient id="path4591_1_" gradientUnits="userSpaceOnUse" x1="-3093.8533" y1="5511.8384" x2="-2897.9468" y2="5511.8384" gradientTransform="matrix(-1 0 0 1 -2852.8569 -6317.6821)">
			<stop  offset="0" style="stop-color:#8BC541"/>
			<stop  offset="1" style="stop-color:#39B24A"/>
		</linearGradient>
		<path id="path4591" inkscape:connector-curvature="0" class="st11" d="M179.6-835.7c-3.7-0.8-7.6-1.2-11.8-1.2
			c-2.2,0-4.4,0.1-6.6,0.4c-2.1,0.2-4.3,0.6-6.5,1c-28.6,5.7-52.7,19.6-70.7,33.2c-4.9,3.7-9.3,7.3-13.2,10.8
			c-7.5,6.6-13.2,12.6-16.9,16.7h183C231.3-790.4,214.2-828.5,179.6-835.7z"/>
	</g>
</g>
<path id="path4603" inkscape:connector-curvature="0" class="st0" d="M65.4,94.6c7.5-18.1,28.5-26.5,46.8-18.8
	c4.3,1.8,8,4.3,11.1,7.3c-3.7-4.1-8.4-7.5-13.8-9.8c-19.5-8.2-41.9,0.8-50,20.2c-5.7,13.7-2.7,29,6.5,39.5c0.9-1.6,1.9-3.2,2.8-4.8
	C62.3,118.6,60.6,106,65.4,94.6z"/>
</svg>
